# xmcd
#
# Track frame offsets:
#	150
#	19537
#	40377
#	59402
#	92325
#	122525
#
# Disc length: 1881
#
# Revision: 1
# Processed by: cddbd v1.5.1PL0 Copyright (c) Steve Scherf et al.
# Submitted via: CDex 1.51
# Normalized: r0:TRMNUM
#
DISCID=40075706
DTITLE=The Henry McCullough Band - Blue Sunset
DYEAR=1900
DGENRE=Blues
TTITLE0=Fast Blues in G
TTITLE1=Locked in and Cant Get Out
TTITLE2=Come Together
TTITLE3=So Long Blues
TTITLE4=All I Wanna Do
TTITLE5=The House of the Rising Sun
EXTD=
EXTT0=
EXTT1=
EXTT2=
EXTT3=
EXTT4=
EXTT5=
PLAYORDER=
